  0
SECTION
  2
HEADER
  9
$ACADVER
  1
AC1014
  9
$HANDSEED
  5
FFFF
  9
$MEASUREMENT
 70
     1
  0
ENDSEC
  0
SECTION
  2
TABLES
  0
TABLE
  2
VPORT
  5
8
330
0
100
AcDbSymbolTable
 70
     4
  0
VPORT
  5
2E
330
8
100
AcDbSymbolTableRecord
100
AcDbViewportTableRecord
  2
*ACTIVE
 70
     0
 10
0.0
 20
0.0
 11
1.0
 21
1.0
 12
210.0
 22
148.5
 13
0.0
 23
0.0
 14
10.0
 24
10.0
 15
10.0
 25
10.0
 16
0.0
 26
0.0
 36
1.0
 17
0.0
 27
0.0
 37
0.0
 40
341.0
 41
1.24
 42
50.0
 43
0.0
 44
0.0
 50
0.0
 51
0.0
 71
     0
 72
   100
 73
     1
 74
     3
 75
     0
 76
     0
 77
     0
 78
     0
  0
ENDTAB
  0
TABLE
  2
LTYPE
  5
5
330
0
100
AcDbSymbolTable
 70
     1
  0
LTYPE
  5
14
330
5
100
AcDbSymbolTableRecord
100
AcDbLinetypeTableRecord
  2
BYBLOCK
 70
     0
  3

 72
    65
 73
     0
 40
0.0
  0
LTYPE
  5
15
330
5
100
AcDbSymbolTableRecord
100
AcDbLinetypeTableRecord
  2
BYLAYER
 70
     0
  3

 72
    65
 73
     0
 40
0.0
  0
LTYPE
  5
16
330
5
100
AcDbSymbolTableRecord
100
AcDbLinetypeTableRecord
  2
CONTINUOUS
 70
     0
  3
Solid line
 72
    65
 73
     0
 40
0.0
  0
ENDTAB
  0
TABLE
  2
LAYER
  5
2
100
AcDbSymbolTable
 70
2
  0
LAYER
  5
50
100
AcDbSymbolTableRecord
100
AcDbLayerTableRecord
  2
0
 70
0
  6
CONTINUOUS
  0
LAYER
  5
51
100
AcDbSymbolTableRecord
100
AcDbLayerTableRecord
  2
Layer_1
 70
0
  6
CONTINUOUS
  0
ENDTAB
  0
TABLE
  2
STYLE
  5
3
330
0
100
AcDbSymbolTable
 70
     1
  0
STYLE
  5
11
330
3
100
AcDbSymbolTableRecord
100
AcDbTextStyleTableRecord
  2
STANDARD
 70
     0
 40
0.0
 41
1.0
 50
0.0
 71
     0
 42
2.5
  3
txt
  4

  0
ENDTAB
  0
TABLE
  2
VIEW
  5
6
330
0
100
AcDbSymbolTable
 70
     0
  0
ENDTAB
  0
TABLE
  2
UCS
  5
7
330
0
100
AcDbSymbolTable
 70
     0
  0
ENDTAB
  0
TABLE
  2
APPID
  5
9
330
0
100
AcDbSymbolTable
 70
     2
  0
APPID
  5
12
330
9
100
AcDbSymbolTableRecord
100
AcDbRegAppTableRecord
  2
ACAD
 70
     0
  0
ENDTAB
  0
TABLE
  2
DIMSTYLE
  5
A
330
0
100
AcDbSymbolTable
 70
     1
  0
DIMSTYLE
105
27
330
A
100
AcDbSymbolTableRecord
100
AcDbDimStyleTableRecord
  2
ISO-25
 70
     0
  3

  4

  5

  6

  7

 40
1.0
 41
2.5
 42
0.625
 43
3.75
 44
1.25
 45
0.0
 46
0.0
 47
0.0
 48
0.0
140
2.5
141
2.5
142
0.0
143
0.03937007874016
144
1.0
145
0.0
146
1.0
147
0.625
 71
     0
 72
     0
 73
     0
 74
     0
 75
     0
 76
     0
 77
     1
 78
     8
170
     0
171
     3
172
     1
173
     0
174
     0
175
     0
176
     0
177
     0
178
     0
270
     2
271
     2
272
     2
273
     2
274
     3
340
11
275
     0
280
     0
281
     0
282
     0
283
     0
284
     8
285
     0
286
     0
287
     3
288
     0
  0
ENDTAB
  0
TABLE
  2
BLOCK_RECORD
  5
1
330
0
100
AcDbSymbolTable
 70
     1
  0
BLOCK_RECORD
  5
1F
330
1
100
AcDbSymbolTableRecord
100
AcDbBlockTableRecord
  2
*MODEL_SPACE
  0
BLOCK_RECORD
  5
1B
330
1
100
AcDbSymbolTableRecord
100
AcDbBlockTableRecord
  2
*PAPER_SPACE
  0
ENDTAB
  0
ENDSEC
  0
SECTION
  2
BLOCKS
  0
BLOCK
  5
20
330
1F
100
AcDbEntity
  8
0
100
AcDbBlockBegin
  2
*MODEL_SPACE
 70
     0
 10
0.0
 20
0.0
 30
0.0
  3
*MODEL_SPACE
  1

  0
ENDBLK
  5
21
330
1F
100
AcDbEntity
  8
0
100
AcDbBlockEnd
  0
BLOCK
  5
1C
330
1B
100
AcDbEntity
 67
     1
  8
0
100
AcDbBlockBegin
  2
*PAPER_SPACE
  1

  0
ENDBLK
  5
1D
330
1B
100
AcDbEntity
 67
     1
  8
0
100
AcDbBlockEnd
  0
ENDSEC
  0
SECTION
  2
ENTITIES
  0
LWPOLYLINE
  5
100
100
AcDbEntity
  8
Layer_1
 62
1
100
AcDbPolyline
 90
47
 70
0
 10
82.078460
 20
136.624564
 30
0.0
 10
82.468971
 20
136.625128
 30
0.0
 10
82.858607
 20
136.604413
 30
0.0
 10
83.322755
 20
136.558987
 30
0.0
 10
83.786732
 20
136.511841
 30
0.0
 10
85.316452
 20
136.102320
 30
0.0
 10
86.766377
 20
135.467746
 30
0.0
 10
87.386716
 20
135.099113
 30
0.0
 10
87.979905
 20
134.688051
 30
0.0
 10
88.266036
 20
134.479367
 30
0.0
 10
88.525875
 20
134.239761
 30
0.0
 10
88.553476
 20
134.209856
 30
0.0
 10
88.536769
 20
134.217222
 30
0.0
 10
87.983478
 20
134.583496
 30
0.0
 10
87.427195
 20
134.945141
 30
0.0
 10
86.643574
 20
135.341141
 30
0.0
 10
85.826812
 20
135.664139
 30
0.0
 10
85.294572
 20
135.842419
 30
0.0
 10
84.756103
 20
136.000838
 30
0.0
 10
84.067706
 20
136.146561
 30
0.0
 10
83.369514
 20
136.235328
 30
0.0
 10
82.200990
 20
136.270872
 30
0.0
 10
81.034664
 20
136.184972
 30
0.0
 10
79.656457
 20
135.938645
 30
0.0
 10
78.320866
 20
135.520127
 30
0.0
 10
77.576618
 20
135.179879
 30
0.0
 10
76.860660
 20
134.783230
 30
0.0
 10
76.606022
 20
134.624686
 30
0.0
 10
76.358217
 20
134.455663
 30
0.0
 10
76.187009
 20
134.336337
 30
0.0
 10
76.014498
 20
134.219065
 30
0.0
 10
76.175447
 20
134.382994
 30
0.0
 10
76.351147
 20
134.530695
 30
0.0
 10
76.655250
 20
134.750961
 30
0.0
 10
76.964024
 20
134.964741
 30
0.0
 10
77.641600
 20
135.389246
 30
0.0
 10
78.352077
 20
135.755898
 30
0.0
 10
79.242491
 20
136.118497
 30
0.0
 10
80.164189
 20
136.391753
 30
0.0
 10
80.531053
 20
136.454612
 30
0.0
 10
80.897978
 20
136.517130
 30
0.0
 10
81.104859
 20
136.551908
 30
0.0
 10
81.312498
 20
136.581090
 30
0.0
 10
81.695101
 20
136.610865
 30
0.0
 10
82.078449
 20
136.624383
 30
0.0
 10
82.078449
 20
136.624383
 30
0.0
 10
82.078460
 20
136.624564
 30
0.0
  0
LWPOLYLINE
  5
101
100
AcDbEntity
  8
Layer_1
 62
1
100
AcDbPolyline
 90
31
 70
0
 10
75.521783
 20
130.512858
 30
0.0
 10
79.365204
 20
130.512858
 30
0.0
 10
82.169040
 20
126.653681
 30
0.0
 10
82.200476
 20
126.653681
 30
0.0
 10
85.020029
 20
130.512858
 30
0.0
 10
88.816214
 20
130.497082
 30
0.0
 10
88.816214
 20
128.024050
 30
0.0
 10
87.792346
 20
128.008274
 30
0.0
 10
87.808122
 20
123.550518
 30
0.0
 10
88.816228
 20
123.519084
 30
0.0
 10
88.800452
 20
121.046049
 30
0.0
 10
83.964664
 20
121.046049
 30
0.0
 10
83.964664
 20
123.534854
 30
0.0
 10
85.067295
 20
123.550631
 30
0.0
 10
85.067295
 20
125.929151
 30
0.0
 10
85.020116
 20
126.700990
 30
0.0
 10
82.956646
 20
123.865653
 30
0.0
 10
82.200564
 20
122.841829
 30
0.0
 10
82.137586
 20
122.841829
 30
0.0
 10
79.333759
 20
126.700990
 30
0.0
 10
79.270781
 20
126.685213
 30
0.0
 10
79.286557
 20
123.550611
 30
0.0
 10
80.389188
 20
123.503432
 30
0.0
 10
80.389188
 20
121.046162
 30
0.0
 10
75.521899
 20
121.046162
 30
0.0
 10
75.521899
 20
123.534967
 30
0.0
 10
76.561507
 20
123.566404
 30
0.0
 10
76.545702
 20
128.024177
 30
0.0
 10
75.521834
 20
128.024177
 30
0.0
 10
75.521834
 20
130.512946
 30
0.0
 10
75.521752
 20
130.512841
 30
0.0
  0
LWPOLYLINE
  5
102
100
AcDbEntity
  8
Layer_1
 62
1
100
AcDbPolyline
 90
24
 70
0
 10
72.930458
 20
126.437247
 30
0.0
 10
72.937937
 20
125.185894
 30
0.0
 10
72.935679
 20
124.186714
 30
0.0
 10
72.879562
 20
124.047788
 30
0.0
 10
72.539106
 20
123.835043
 30
0.0
 10
71.384789
 20
122.768807
 30
0.0
 10
70.733790
 20
122.140039
 30
0.0
 10
70.247691
 20
121.568155
 30
0.0
 10
69.702821
 20
120.811825
 30
0.0
 10
68.880067
 20
119.494553
 30
0.0
 10
68.236905
 20
118.342287
 30
0.0
 10
68.071862
 20
117.912426
 30
0.0
 10
65.944871
 20
117.911862
 30
0.0
 10
66.330695
 20
118.832041
 30
0.0
 10
66.589625
 20
119.392947
 30
0.0
 10
67.049283
 20
120.278845
 30
0.0
 10
67.489745
 20
121.031574
 30
0.0
 10
67.920735
 20
121.708775
 30
0.0
 10
68.606162
 20
122.632548
 30
0.0
 10
69.458301
 20
123.612189
 30
0.0
 10
69.989184
 20
124.190440
 30
0.0
 10
71.889818
 20
125.791148
 30
0.0
 10
72.907500
 20
126.480856
 30
0.0
 10
72.930458
 20
126.437247
 30
0.0
  0
LWPOLYLINE
  5
103
100
AcDbEntity
  8
Layer_1
 62
1
100
AcDbPolyline
 90
24
 70
0
 10
91.037260
 20
126.433169
 30
0.0
 10
91.483716
 20
126.192154
 30
0.0
 10
91.963534
 20
125.850962
 30
0.0
 10
93.163737
 20
124.842249
 30
0.0
 10
93.843805
 20
124.250607
 30
0.0
 10
94.443781
 20
123.652027
 30
0.0
 10
94.999025
 20
123.024534
 30
0.0
 10
95.524983
 20
122.356117
 30
0.0
 10
96.017165
 20
121.656863
 30
0.0
 10
96.572251
 20
120.769384
 30
0.0
 10
97.185604
 20
119.662046
 30
0.0
 10
97.211936
 20
119.612657
 30
0.0
 10
97.952300
 20
117.911441
 30
0.0
 10
95.841546
 20
117.911441
 30
0.0
 10
95.290632
 20
119.018774
 30
0.0
 10
94.764445
 20
119.954899
 30
0.0
 10
94.386039
 20
120.558688
 30
0.0
 10
93.998765
 20
121.118053
 30
0.0
 10
93.562356
 20
121.681027
 30
0.0
 10
93.067502
 20
122.242418
 30
0.0
 10
92.686533
 20
122.617505
 30
0.0
 10
92.328907
 20
122.936281
 30
0.0
 10
91.037255
 20
124.038886
 30
0.0
 10
91.037255
 20
126.433169
 30
0.0
  0
LWPOLYLINE
  5
104
100
AcDbEntity
  8
Layer_1
 62
1
100
AcDbPolyline
 90
3
 70
0
 10
105.229626
 20
117.375907
 30
0.0
 10
105.276833
 20
117.312958
 30
0.0
 10
105.229626
 20
117.375907
 30
0.0
  0
LWPOLYLINE
  5
105
100
AcDbEntity
  8
Layer_1
 62
1
100
AcDbPolyline
 90
31
 70
0
 10
105.276864
 20
117.312907
 30
0.0
 10
105.665312
 20
116.910754
 30
0.0
 10
106.300730
 20
115.926736
 30
0.0
 10
106.660589
 20
115.264154
 30
0.0
 10
106.967457
 20
114.556595
 30
0.0
 10
107.199436
 20
113.892693
 30
0.0
 10
107.439460
 20
113.045794
 30
0.0
 10
107.513603
 20
112.729121
 30
0.0
 10
107.651180
 20
111.790668
 30
0.0
 10
107.674859
 20
110.899212
 30
0.0
 10
107.602582
 20
110.010943
 30
0.0
 10
107.451937
 20
109.166475
 30
0.0
 10
107.231011
 20
108.350638
 30
0.0
 10
106.956372
 20
107.590086
 30
0.0
 10
106.648868
 20
106.909990
 30
0.0
 10
106.363739
 20
106.381159
 30
0.0
 10
105.553276
 20
105.144760
 30
0.0
 10
105.261131
 20
104.868993
 30
0.0
 10
105.623416
 20
105.388801
 30
0.0
 10
106.426739
 20
106.869466
 30
0.0
 10
106.719531
 20
107.651718
 30
0.0
 10
106.949841
 20
108.465401
 30
0.0
 10
107.124571
 20
109.314887
 30
0.0
 10
107.243087
 20
110.221430
 30
0.0
 10
107.293348
 20
111.136395
 30
0.0
 10
107.266621
 20
112.067635
 30
0.0
 10
107.155956
 20
112.966442
 30
0.0
 10
106.962315
 20
113.800262
 30
0.0
 10
106.137397
 20
115.938228
 30
0.0
 10
105.969949
 20
116.241758
 30
0.0
 10
105.276879
 20
117.312907
 30
0.0
  0
LWPOLYLINE
  5
106
100
AcDbEntity
  8
Layer_1
 62
1
100
AcDbPolyline
 90
3
 70
0
 10
59.691262
 20
117.249887
 30
0.0
 10
59.722695
 20
117.249887
 30
0.0
 10
59.691194
 20
117.249969
 30
0.0
  0
LWPOLYLINE
  5
107
100
AcDbEntity
  8
Layer_1
 62
1
100
AcDbPolyline
 90
33
 70
0
 10
59.659760
 20
117.202623
 30
0.0
 10
58.856423
 20
115.910971
 30
0.0
 10
58.527961
 20
115.256489
 30
0.0
 10
58.259531
 20
114.576703
 30
0.0
 10
58.034281
 20
113.810109
 30
0.0
 10
57.819369
 20
112.835782
 30
0.0
 10
57.690780
 20
112.130551
 30
0.0
 10
57.612424
 20
111.285219
 30
0.0
 10
57.624334
 20
110.438247
 30
0.0
 10
57.712779
 20
109.577439
 30
0.0
 10
57.863887
 20
108.739941
 30
0.0
 10
58.064569
 20
107.948593
 30
0.0
 10
58.296804
 20
107.239414
 30
0.0
 10
58.557341
 20
106.608379
 30
0.0
 10
58.793408
 20
106.144883
 30
0.0
 10
59.344718
 20
105.215516
 30
0.0
 10
59.706993
 20
104.695708
 30
0.0
 10
59.628162
 20
104.758672
 30
0.0
 10
58.935084
 20
105.640803
 30
0.0
 10
58.285360
 20
106.729410
 30
0.0
 10
57.760912
 20
107.998194
 30
0.0
 10
57.753716
 20
108.019304
 30
0.0
 10
57.359928
 20
109.752038
 30
0.0
 10
57.296657
 20
111.291563
 30
0.0
 10
57.312715
 20
111.421704
 30
0.0
 10
57.501719
 20
112.996880
 30
0.0
 10
57.727658
 20
113.771227
 30
0.0
 10
58.007758
 20
114.517795
 30
0.0
 10
58.350034
 20
115.229726
 30
0.0
 10
58.645414
 20
115.743715
 30
0.0
 10
59.061028
 20
116.378565
 30
0.0
 10
59.659720
 20
117.202595
 30
0.0
 10
59.659737
 20
117.202631
 30
0.0
  0
LWPOLYLINE
  5
108
100
AcDbEntity
  8
Layer_1
 62
1
100
AcDbPolyline
 90
24
 70
0
 10
97.653012
 20
110.035578
 30
0.0
 10
96.392859
 20
110.035578
 30
0.0
 10
96.392859
 20
110.051326
 30
0.0
 10
96.518888
 20
110.571132
 30
0.0
 10
97.511255
 20
110.571132
 30
0.0
 10
97.511255
 20
110.618339
 30
0.0
 10
96.692153
 20
114.194001
 30
0.0
 10
96.802445
 20
114.666543
 30
0.0
 10
98.629631
 20
114.666543
 30
0.0
 10
99.464495
 20
111.138136
 30
0.0
 10
99.795282
 20
109.736237
 30
0.0
 10
99.952785
 20
109.121935
 30
0.0
 10
100.330827
 20
108.854151
 30
0.0
 10
100.252087
 20
108.586367
 30
0.0
 10
99.622003
 20
108.526068
 30
0.0
 10
98.719459
 20
108.502192
 30
0.0
 10
97.981412
 20
108.534455
 30
0.0
 10
97.622273
 20
108.586923
 30
0.0
 10
97.479762
 20
108.633552
 30
0.0
 10
97.463985
 20
108.869812
 30
0.0
 10
97.779005
 20
109.153357
 30
0.0
 10
97.761253
 20
109.587689
 30
0.0
 10
97.652973
 20
110.035454
 30
0.0
 10
97.652984
 20
110.035559
 30
0.0
  0
LWPOLYLINE
  5
109
100
AcDbEntity
  8
Layer_1
 62
1
100
AcDbPolyline
 90
23
 70
0
 10
67.078846
 20
109.704783
 30
0.0
 10
65.818684
 20
109.704783
 30
0.0
 10
65.818684
 20
109.720474
 30
0.0
 10
65.944713
 20
110.240283
 30
0.0
 10
66.937080
 20
110.240283
 30
0.0
 10
66.937080
 20
110.287462
 30
0.0
 10
66.117998
 20
113.863135
 30
0.0
 10
66.228287
 20
114.335680
 30
0.0
 10
68.055476
 20
114.335680
 30
0.0
 10
68.890340
 20
110.807261
 30
0.0
 10
69.221127
 20
109.405371
 30
0.0
 10
69.378638
 20
108.791069
 30
0.0
 10
69.756686
 20
108.523212
 30
0.0
 10
69.677971
 20
108.255419
 30
0.0
 10
69.044301
 20
108.194945
 30
0.0
 10
68.134114
 20
108.171266
 30
0.0
 10
67.345343
 20
108.209138
 30
0.0
 10
66.905655
 20
108.302246
 30
0.0
 10
66.890076
 20
108.538511
 30
0.0
 10
67.205169
 20
108.822060
 30
0.0
 10
67.185921
 20
109.263365
 30
0.0
 10
67.079252
 20
109.704134
 30
0.0
 10
67.079244
 20
109.704250
 30
0.0
  0
LWPOLYLINE
  5
10a
100
AcDbEntity
  8
Layer_1
 62
1
100
AcDbPolyline
 90
21
 70
0
 10
96.487358
 20
113.516702
 30
0.0
 10
96.739416
 20
112.587356
 30
0.0
 10
96.109336
 20
110.287592
 30
0.0
 10
95.889033
 20
109.495718
 30
0.0
 10
95.904555
 20
109.358234
 30
0.0
 10
96.009866
 20
109.185514
 30
0.0
 10
96.419430
 20
108.907505
 30
0.0
 10
96.455862
 20
108.854199
 30
0.0
 10
96.455862
 20
108.665178
 30
0.0
 10
96.176008
 20
108.575945
 30
0.0
 10
95.681044
 20
108.530072
 30
0.0
 10
95.182470
 20
108.536705
 30
0.0
 10
94.833499
 20
108.593798
 30
0.0
 10
94.691677
 20
108.665164
 30
0.0
 10
94.644439
 20
108.838423
 30
0.0
 10
95.189658
 20
109.298614
 30
0.0
 10
95.337497
 20
109.421248
 30
0.0
 10
95.671451
 20
110.541803
 30
0.0
 10
95.715554
 20
110.712872
 30
0.0
 10
96.487364
 20
113.516688
 30
0.0
 10
96.487330
 20
113.516688
 30
0.0
  0
LWPOLYLINE
  5
10b
100
AcDbEntity
  8
Layer_1
 62
1
100
AcDbPolyline
 90
21
 70
0
 10
65.913203
 20
113.185918
 30
0.0
 10
66.165253
 20
112.256552
 30
0.0
 10
65.535161
 20
109.956805
 30
0.0
 10
65.315092
 20
109.164006
 30
0.0
 10
65.330530
 20
109.027472
 30
0.0
 10
65.478299
 20
108.819373
 30
0.0
 10
65.856491
 20
108.560496
 30
0.0
 10
65.881891
 20
108.523324
 30
0.0
 10
65.881891
 20
108.334306
 30
0.0
 10
65.600899
 20
108.244912
 30
0.0
 10
65.196847
 20
108.199350
 30
0.0
 10
64.494788
 20
108.216622
 30
0.0
 10
64.209755
 20
108.275511
 30
0.0
 10
64.117739
 20
108.334205
 30
0.0
 10
64.070408
 20
108.507435
 30
0.0
 10
64.730336
 20
109.059061
 30
0.0
 10
64.763506
 20
109.090337
 30
0.0
 10
65.108198
 20
110.254597
 30
0.0
 10
65.141509
 20
110.381961
 30
0.0
 10
65.913330
 20
113.185782
 30
0.0
 10
65.913257
 20
113.185782
 30
0.0
  0
LWPOLYLINE
  5
10c
100
AcDbEntity
  8
Layer_1
 62
1
100
AcDbPolyline
 90
23
 70
0
 10
66.338492
 20
105.121014
 30
0.0
 10
68.512238
 20
105.121014
 30
0.0
 10
69.178825
 20
103.894256
 30
0.0
 10
69.963750
 20
102.765483
 30
0.0
 10
70.872076
 20
101.710556
 30
0.0
 10
71.885999
 20
100.741179
 30
0.0
 10
72.985847
 20
99.867112
 30
0.0
 10
74.163202
 20
99.089265
 30
0.0
 10
75.404492
 20
98.413447
 30
0.0
 10
76.655888
 20
97.859448
 30
0.0
 10
76.655888
 20
95.780224
 30
0.0
 10
75.695056
 20
96.126790
 30
0.0
 10
73.442548
 20
97.213675
 30
0.0
 10
72.478000
 20
97.825595
 30
0.0
 10
71.640198
 20
98.421592
 30
0.0
 10
70.845460
 20
99.056688
 30
0.0
 10
70.104260
 20
99.722907
 30
0.0
 10
69.396345
 20
100.441846
 30
0.0
 10
68.732725
 20
101.206135
 30
0.0
 10
68.113696
 20
102.017800
 30
0.0
 10
67.582872
 20
102.805547
 30
0.0
 10
66.590045
 20
104.470255
 30
0.0
 10
66.338518
 20
105.121040
 30
0.0
  0
LWPOLYLINE
  5
10d
100
AcDbEntity
  8
Layer_1
 62
1
100
AcDbPolyline
 90
22
 70
0
 10
95.384755
 20
105.121014
 30
0.0
 10
97.574238
 20
105.121014
 30
0.0
 10
96.995773
 20
103.965311
 30
0.0
 10
96.387892
 20
102.925560
 30
0.0
 10
95.729019
 20
101.953928
 30
0.0
 10
95.014909
 20
101.041585
 30
0.0
 10
94.244885
 20
100.185814
 30
0.0
 10
93.418259
 20
99.383888
 30
0.0
 10
92.534351
 20
98.633016
 30
0.0
 10
91.651571
 20
97.969732
 30
0.0
 10
89.973212
 20
96.893951
 30
0.0
 10
89.438788
 20
96.625361
 30
0.0
 10
88.816279
 20
96.378786
 30
0.0
 10
88.816279
 20
98.552538
 30
0.0
 10
89.870748
 20
99.120809
 30
0.0
 10
90.851564
 20
99.771255
 30
0.0
 10
91.796416
 20
100.521859
 30
0.0
 10
92.673404
 20
101.342256
 30
0.0
 10
93.483354
 20
102.229439
 30
0.0
 10
94.211964
 20
103.165660
 30
0.0
 10
94.857245
 20
104.150556
 30
0.0
 10
95.384755
 20
105.121014
 30
0.0
  0
LWPOLYLINE
  5
10e
100
AcDbEntity
  8
Layer_1
 62
1
100
AcDbPolyline
 90
3
 70
0
 10
105.245354
 20
104.868993
 30
0.0
 10
105.213906
 20
104.806029
 30
0.0
 10
105.245354
 20
104.868979
 30
0.0
  0
LWPOLYLINE
  5
10f
100
AcDbEntity
  8
Layer_1
 62
1
100
AcDbPolyline
 90
18
 70
0
 10
80.389070
 20
99.166839
 30
0.0
 10
82.310803
 20
99.166839
 30
0.0
 10
82.870842
 20
99.143302
 30
0.0
 10
82.972408
 20
99.071925
 30
0.0
 10
83.020021
 20
98.819892
 30
0.0
 10
82.708428
 20
98.544144
 30
0.0
 10
82.689294
 20
98.504718
 30
0.0
 10
82.726386
 20
98.081193
 30
0.0
 10
82.941245
 20
97.433577
 30
0.0
 10
83.728845
 20
94.661294
 30
0.0
 10
83.319312
 20
93.038847
 30
0.0
 10
82.122162
 20
93.038847
 30
0.0
 10
80.499749
 20
98.504726
 30
0.0
 10
80.153129
 20
98.788278
 30
0.0
 10
80.135801
 20
98.930247
 30
0.0
 10
80.280346
 20
99.118015
 30
0.0
 10
80.387738
 20
99.166456
 30
0.0
 10
80.387839
 20
99.166506
 30
0.0
  0
LWPOLYLINE
  5
110
100
AcDbEntity
  8
Layer_1
 62
1
100
AcDbPolyline
 90
20
 70
0
 10
83.885989
 20
99.166839
 30
0.0
 10
85.175457
 20
99.166704
 30
0.0
 10
85.461153
 20
99.072275
 30
0.0
 10
85.475772
 20
98.820146
 30
0.0
 10
84.858304
 20
98.377901
 30
0.0
 10
84.798586
 20
98.300417
 30
0.0
 10
84.455327
 20
97.231802
 30
0.0
 10
84.389028
 20
96.977255
 30
0.0
 10
83.916458
 20
95.276076
 30
0.0
 10
83.899158
 20
95.276076
 30
0.0
 10
83.881829
 20
95.276076
 30
0.0
 10
83.661261
 20
96.142399
 30
0.0
 10
84.119875
 20
97.712111
 30
0.0
 10
84.206040
 20
98.173863
 30
0.0
 10
84.196953
 20
98.410656
 30
0.0
 10
83.895537
 20
98.656291
 30
0.0
 10
83.677238
 20
98.757061
 30
0.0
 10
83.661151
 20
99.040531
 30
0.0
 10
83.881682
 20
99.166580
 30
0.0
 10
83.881654
 20
99.166605
 30
0.0
  0
LWPOLYLINE
  5
111
100
AcDbEntity
  8
Layer_1
 62
1
100
AcDbPolyline
 90
29
 70
0
 10
76.640159
 20
89.022728
 30
0.0
 10
77.742762
 20
88.298137
 30
0.0
 10
78.577674
 20
87.874581
 30
0.0
 10
80.250388
 20
87.282004
 30
0.0
 10
81.123429
 20
87.083015
 30
0.0
 10
82.043730
 20
86.978870
 30
0.0
 10
82.969029
 20
86.961033
 30
0.0
 10
83.906682
 20
87.020957
 30
0.0
 10
84.807450
 20
87.147113
 30
0.0
 10
85.664514
 20
87.331673
 30
0.0
 10
86.456808
 20
87.565883
 30
0.0
 10
87.099329
 20
87.809850
 30
0.0
 10
88.469730
 20
88.534433
 30
0.0
 10
89.162803
 20
89.006975
 30
0.0
 10
89.068241
 20
88.896682
 30
0.0
 10
88.186150
 20
88.219329
 30
0.0
 10
86.682191
 20
87.387683
 30
0.0
 10
85.759386
 20
87.041712
 30
0.0
 10
84.704896
 20
86.781898
 30
0.0
 10
83.621643
 20
86.649990
 30
0.0
 10
82.550974
 20
86.642145
 30
0.0
 10
81.513581
 20
86.746253
 30
0.0
 10
80.515897
 20
86.951689
 30
0.0
 10
79.571492
 20
87.247935
 30
0.0
 10
78.693992
 20
87.624495
 30
0.0
 10
77.854073
 20
88.095880
 30
0.0
 10
76.746873
 20
88.897492
 30
0.0
 10
76.640100
 20
89.022683
 30
0.0
 10
76.640154
 20
89.022728
 30
0.0
  0
ENDSEC
  0
SECTION
  2
OBJECTS
  0
DICTIONARY
  5
C
330
0
100
AcDbDictionary
  3
ACAD_GROUP
350
D
  3
ACAD_MLINESTYLE
350
17
  0
DICTIONARY
  5
D
330
C
100
AcDbDictionary
  0
DICTIONARY
  5
1A
330
C
100
AcDbDictionary
  0
DICTIONARY
  5
17
330
C
100
AcDbDictionary
  3
STANDARD
350
18
  0
DICTIONARY
  5
19
330
C
100
AcDbDictionary
  0
ENDSEC
  0
EOF
